<svg width="202" height="60" viewBox="0 0 202 60" fill="none" xmlns="http://www.w3.org/2000/svg">
<path d="M101 0.5C114.28 0.5 132.863 1.24308 150.727 2.86529C168.605 4.48876 185.713 6.98867 196.071 10.4872C197.684 11.0321 199.04 12.3356 199.999 14.1328C200.956 15.9282 201.5 18.1867 201.5 20.5701V39.4299C201.5 41.8133 200.956 44.0718 199.999 45.8672C199.04 47.6644 197.684 48.9679 196.071 49.5128C185.713 53.0113 168.605 55.5112 150.727 57.1347C132.863 58.7569 114.28 59.5 101 59.5C87.7205 59.5 69.1374 58.7569 51.2731 57.1347C33.3948 55.5112 16.287 53.0113 5.92909 49.5128C4.31554 48.9679 2.96002 47.6644 2.00134 45.8672C1.04358 44.0718 0.5 41.8133 0.5 39.4299V20.5701C0.5 18.1867 1.04358 15.9282 2.00134 14.1328C2.96002 12.3356 4.31554 11.0321 5.92909 10.4872C16.287 6.98867 33.3948 4.48876 51.2731 2.86529C69.1374 1.24308 87.7205 0.5 101 0.5Z" stroke="black"/>
<path d="M51.4588 37.234C49.7188 37.234 48.2548 36.658 47.0668 35.506C45.8788 34.342 45.2848 32.842 45.2848 31.006C45.2848 29.17 45.8788 27.676 47.0668 26.524C48.2548 25.372 49.7188 24.796 51.4588 24.796C53.3548 24.796 54.9088 25.546 56.1208 27.046L54.9328 27.784C54.5488 27.28 54.0448 26.878 53.4208 26.578C52.8088 26.278 52.1548 26.128 51.4588 26.128C50.1388 26.128 49.0348 26.59 48.1468 27.514C47.2708 28.426 46.8328 29.59 46.8328 31.006C46.8328 32.422 47.2708 33.592 48.1468 34.516C49.0348 35.44 50.1388 35.902 51.4588 35.902C52.1188 35.902 52.7308 35.776 53.2948 35.524C53.8708 35.26 54.3328 34.954 54.6808 34.606V32.158H50.5588V30.826H56.1748V35.164C54.9388 36.544 53.3668 37.234 51.4588 37.234ZM67.1888 37H59.3228V24.994H67.1888V26.326H60.8168V30.196H67.0628V31.528H60.8168V35.668H67.1888V37ZM74.7549 37H73.2609V26.326H69.4629V24.994H78.5709V26.326H74.7549V37ZM89.9311 37H88.4371V26.974L86.5111 29.008L85.6111 28.09L88.6171 24.994H89.9311V37ZM97.4707 37.216C95.6227 37.216 94.2127 36.574 93.2407 35.29L94.1587 34.3C94.9867 35.356 96.0907 35.884 97.4707 35.884C98.2867 35.884 98.9527 35.638 99.4687 35.146C99.9847 34.654 100.243 34.042 100.243 33.31C100.243 32.53 99.9847 31.906 99.4687 31.438C98.9647 30.958 98.3047 30.718 97.4887 30.718C96.4087 30.718 95.4847 31.096 94.7167 31.852L93.6187 31.474V24.994H100.963V26.326H95.1127V30.502C95.8327 29.782 96.7687 29.422 97.9207 29.422C98.9767 29.422 99.8767 29.77 100.621 30.466C101.365 31.15 101.737 32.08 101.737 33.256C101.737 34.456 101.335 35.416 100.531 36.136C99.7267 36.856 98.7067 37.216 97.4707 37.216ZM108.916 29.908C108.376 30.46 107.68 30.736 106.828 30.736C105.976 30.736 105.28 30.46 104.74 29.908C104.212 29.344 103.948 28.642 103.948 27.802C103.948 26.95 104.218 26.242 104.758 25.678C105.298 25.102 105.988 24.814 106.828 24.814C107.68 24.814 108.376 25.102 108.916 25.678C109.468 26.242 109.744 26.95 109.744 27.802C109.744 28.642 109.468 29.344 108.916 29.908ZM106.666 37H105.694L113.362 24.994H114.352L106.666 37ZM115.18 36.388C114.64 36.94 113.944 37.216 113.092 37.216C112.24 37.216 111.544 36.94 111.004 36.388C110.476 35.824 110.212 35.122 110.212 34.282C110.212 33.43 110.482 32.722 111.022 32.158C111.562 31.582 112.252 31.294 113.092 31.294C113.944 31.294 114.64 31.582 115.18 32.158C115.72 32.722 115.99 33.43 115.99 34.282C115.99 35.122 115.72 35.824 115.18 36.388ZM105.532 29.26C105.868 29.644 106.3 29.836 106.828 29.836C107.356 29.836 107.794 29.644 108.142 29.26C108.49 28.864 108.664 28.378 108.664 27.802C108.664 27.202 108.49 26.71 108.142 26.326C107.806 25.93 107.368 25.732 106.828 25.732C106.3 25.732 105.868 25.93 105.532 26.326C105.196 26.71 105.028 27.202 105.028 27.802C105.028 28.378 105.196 28.864 105.532 29.26ZM111.778 35.74C112.126 36.124 112.564 36.316 113.092 36.316C113.62 36.316 114.058 36.124 114.406 35.74C114.754 35.344 114.928 34.858 114.928 34.282C114.928 33.682 114.754 33.19 114.406 32.806C114.07 32.41 113.632 32.212 113.092 32.212C112.552 32.212 112.114 32.41 111.778 32.806C111.442 33.19 111.274 33.682 111.274 34.282C111.274 34.858 111.442 35.344 111.778 35.74ZM129.513 37.216C127.749 37.216 126.315 36.628 125.211 35.452C124.107 34.276 123.555 32.794 123.555 31.006C123.555 29.218 124.107 27.736 125.211 26.56C126.315 25.384 127.749 24.796 129.513 24.796C131.265 24.796 132.693 25.384 133.797 26.56C134.913 27.736 135.471 29.218 135.471 31.006C135.471 32.794 134.913 34.276 133.797 35.452C132.693 36.628 131.265 37.216 129.513 37.216ZM129.513 35.884C130.833 35.884 131.895 35.428 132.699 34.516C133.515 33.592 133.923 32.422 133.923 31.006C133.923 29.578 133.515 28.408 132.699 27.496C131.895 26.584 130.833 26.128 129.513 26.128C128.181 26.128 127.113 26.584 126.309 27.496C125.505 28.408 125.103 29.578 125.103 31.006C125.103 32.422 125.505 33.592 126.309 34.516C127.113 35.428 128.181 35.884 129.513 35.884ZM140.018 37H138.524V24.994H146.39V26.326H140.018V30.196H146.264V31.528H140.018V37ZM150.635 37H149.141V24.994H157.007V26.326H150.635V30.196H156.881V31.528H150.635V37Z" fill="black"/>
</svg>
