<svg id="Layer_1" data-name="Layer 1" xmlns="http://www.w3.org/2000/svg" viewBox="0 0 850.44 360.89"><defs><style>.cls-1{fill:#df1995;}</style></defs><path d="M767.51,82.49H758.6v24.73H755V82.49h-8.9v-3h21.44Z"/><path d="M776.35,79.5l9.07,22.62,9.06-22.62h4.74v27.72h-3.65V96.43l.34-11.66-9.1,22.45H784l-9.09-22.39.36,11.6v10.79h-3.65V79.5Z"/><path d="M430.2,140.79H366.91a.38.38,0,0,0-.38.38v4a.38.38,0,0,0,.38.38h58.94a59.5,59.5,0,0,1-5.17,21.86A58.18,58.18,0,0,1,408,185.52a61.44,61.44,0,0,1-18.56,12.19,58.89,58.89,0,0,1-45.44-.16,59.43,59.43,0,0,1-31.37-31.45,59.3,59.3,0,0,1,0-46A59.65,59.65,0,0,1,344,88.74a59.1,59.1,0,0,1,45.91,0,60,60,0,0,1,18.71,12.66.39.39,0,0,0,.53,0L412,98.71a.36.36,0,0,0,.11-.26.35.35,0,0,0-.11-.27,65.54,65.54,0,0,0-20.29-13.77,63.74,63.74,0,0,0-49.59,0A63.91,63.91,0,0,0,321.86,98.1a66.64,66.64,0,0,0-13.69,20.29,62.94,62.94,0,0,0,0,49.59,67,67,0,0,0,13.69,20.21,63.86,63.86,0,0,0,20.21,13.69,64.06,64.06,0,0,0,49.67,0A64,64,0,0,0,412,188.19a65.36,65.36,0,0,0,13.61-20.29,62.27,62.27,0,0,0,5-24.84v-1.89A.38.38,0,0,0,430.2,140.79Z"/><path d="M495.06,200.13H442V81.83a.38.38,0,0,0-.37-.38h-4.12a.38.38,0,0,0-.37.38V204.46a.38.38,0,0,0,.37.38h57.6a.38.38,0,0,0,.38-.38v-4A.38.38,0,0,0,495.06,200.13Z"/><path d="M553.86,79.62a.39.39,0,0,0-.69,0L499.68,204.31a.39.39,0,0,0,0,.36.38.38,0,0,0,.31.17h4.43a.36.36,0,0,0,.34-.23l23.64-55.16h50.14l23.64,55.16a.38.38,0,0,0,.35.23H607a.39.39,0,0,0,.31-.17.38.38,0,0,0,0-.36ZM553.51,91l23,53.74h-46Z"/><path d="M736.54,79.41a.37.37,0,0,0-.42.19L675.06,197,614,79.6a.36.36,0,0,0-.42-.19.37.37,0,0,0-.29.36V204.46a.38.38,0,0,0,.38.38h4.11a.38.38,0,0,0,.38-.38V97.61l56.49,109.08a.4.4,0,0,0,.34.2.37.37,0,0,0,.33-.2L732,97.6V204.46a.38.38,0,0,0,.38.38h4.11a.38.38,0,0,0,.38-.38V79.77A.37.37,0,0,0,736.54,79.41Z"/><path d="M279.56,117.63A62.86,62.86,0,0,0,246.08,84.3a61.79,61.79,0,0,0-24.5-5H190.11a1.88,1.88,0,0,0-1.87,1.88V203a1.88,1.88,0,0,0,1.87,1.88h31.63a61.19,61.19,0,0,0,24.42-4.95,63.07,63.07,0,0,0,33.4-33.33,63,63,0,0,0,0-48.94Zm-2.88,24.47a54.34,54.34,0,0,1-4.32,21.41,54.62,54.62,0,0,1-29.28,29.33,54,54,0,0,1-21.45,4.33H196.07V87h25.72a53.4,53.4,0,0,1,21.36,4.32,54.86,54.86,0,0,1,29.21,29.34A54.38,54.38,0,0,1,276.68,142.1Z"/><path d="M176,79.41a1.84,1.84,0,0,0-2.08.94L115.67,192.41,57.39,80.35a1.86,1.86,0,0,0-3.51.86V202.92a1.85,1.85,0,0,0,1.86,1.85h4a1.85,1.85,0,0,0,1.86-1.85V104.73l52.33,101.05a1.86,1.86,0,0,0,1.65,1h0a1.87,1.87,0,0,0,1.65-1l52.48-101.06v98.2a1.85,1.85,0,0,0,1.86,1.85h4a1.85,1.85,0,0,0,1.86-1.85V81.21A1.85,1.85,0,0,0,176,79.41Z"/><path class="cls-1" d="M250.39,254.27a29.38,29.38,0,0,0-9.33-6.26,28.9,28.9,0,0,0-11.37-2.28,28,28,0,0,0-8.57,1.31,29.64,29.64,0,0,0-7.53,3.64,30.78,30.78,0,0,0-9.43,10.17V218.48h-3.63v84.33h3.73V289a27.77,27.77,0,0,0,3.17,4.56,30.54,30.54,0,0,0,6.16,5.53,29.65,29.65,0,0,0,7.58,3.64,29.14,29.14,0,0,0,19.94-1,29.32,29.32,0,0,0,15.55-15.57,28.85,28.85,0,0,0,2.28-11.36,28.5,28.5,0,0,0-2.28-11.31A29.67,29.67,0,0,0,250.39,254.27Zm4.78,19.1,0-.05v1.52a25.3,25.3,0,0,1-2,10,25.44,25.44,0,0,1-13.58,13.62,25.67,25.67,0,0,1-19.82,0,26,26,0,0,1-8.11-5.46,25.72,25.72,0,0,1-5.47-8.16,25.27,25.27,0,0,1-2-10,24.92,24.92,0,0,1,2-9.91,25.84,25.84,0,0,1,5.47-8.11,25.56,25.56,0,0,1,18.12-7.46,24.27,24.27,0,0,1,9.9,2,26.57,26.57,0,0,1,8.12,5.51,26.11,26.11,0,0,1,5.47,8.12A24.68,24.68,0,0,1,255.17,273.37Z"/><polygon class="cls-1" points="279.68 297.74 257.78 246.96 253.74 246.96 277.75 302.18 268.08 324.18 272.11 324.18 305.6 246.96 301.57 246.96 279.68 297.74"/><path class="cls-1" d="M372.62,238.93a38,38,0,0,0-11.94-8A36.78,36.78,0,0,0,346.07,228H326.42v74.84h19.75a36.6,36.6,0,0,0,14.56-2.94A37.7,37.7,0,0,0,380.65,280a37.53,37.53,0,0,0,0-29.17A38,38,0,0,0,372.62,238.93Zm7.25,26.46a33.21,33.21,0,0,1-2.65,13.14,33.54,33.54,0,0,1-18,18,33.17,33.17,0,0,1-13.16,2.65h-16V231.61H346.2a32.82,32.82,0,0,1,13.11,2.65,33.7,33.7,0,0,1,17.91,18A33.28,33.28,0,0,1,379.87,265.39Z"/><path class="cls-1" d="M397.79,249.53a24.86,24.86,0,0,0-7.67,7.78V247h-3.63v55.85h3.73V270.09a20.25,20.25,0,0,1,1.61-8,21.23,21.23,0,0,1,4.43-6.64A20.38,20.38,0,0,1,411,249.36h.63v-3.63H411A23.75,23.75,0,0,0,397.79,249.53Z"/><path class="cls-1" d="M498.38,290.16a35.6,35.6,0,0,1-11.1,7.5,35.05,35.05,0,0,1-27.22,0A35.15,35.15,0,0,1,441.44,279a34.4,34.4,0,0,1-2.74-13.66,34,34,0,0,1,2.74-13.61,35.32,35.32,0,0,1,18.62-18.62,35.05,35.05,0,0,1,27.22,0,35.8,35.8,0,0,1,11.1,7.51l.44.43,2.62-2.48-.46-.45a39.74,39.74,0,0,0-12.3-8.35,38.7,38.7,0,0,0-30.07,0,38.78,38.78,0,0,0-12.26,8.3,40.44,40.44,0,0,0-8.29,12.3,38.15,38.15,0,0,0,0,30.08,40.58,40.58,0,0,0,8.29,12.25A38.59,38.59,0,0,0,458.61,301a38.58,38.58,0,0,0,30.07,0,39.54,39.54,0,0,0,12.3-8.34l.46-.46-2.62-2.48Z"/><path class="cls-1" d="M553.37,260.75a29.16,29.16,0,0,0-3.16-4.55,30.35,30.35,0,0,0-6.14-5.52,29.2,29.2,0,0,0-7.56-3.64,28.21,28.21,0,0,0-8.57-1.31,28.86,28.86,0,0,0-20.59,8.54,29.75,29.75,0,0,0-6.2,9.31,29.32,29.32,0,0,0,0,22.67,29.82,29.82,0,0,0,6.2,9.25,28.81,28.81,0,0,0,20.59,8.55,28.21,28.21,0,0,0,8.57-1.31,29.52,29.52,0,0,0,7.56-3.64,30.72,30.72,0,0,0,6.15-5.53,29.31,29.31,0,0,0,3.15-4.55v13.79h3.73V247h-3.73Zm-2,4.27a25.63,25.63,0,0,1,0,19.78,25.53,25.53,0,0,1-5.44,8.16,25.85,25.85,0,0,1-8.08,5.46,25.5,25.5,0,0,1-19.75,0,25.39,25.39,0,0,1-13.53-13.62,25.44,25.44,0,0,1-2-10,25.09,25.09,0,0,1,2-9.91,25.59,25.59,0,0,1,13.53-13.58,24.76,24.76,0,0,1,9.87-2,24.13,24.13,0,0,1,9.87,2,26.43,26.43,0,0,1,8.09,5.51A26.12,26.12,0,0,1,551.39,265Z"/><polygon class="cls-1" points="576.94 246.96 576.94 227.97 573.21 227.97 573.21 246.96 558.97 246.96 558.97 250.59 573.21 250.59 573.21 302.81 576.94 302.81 576.94 250.59 591.18 250.59 591.18 246.96 576.94 246.96"/><circle class="cls-1" cx="414.19" cy="300.55" r="3.04"/></svg>